<svg xmlns="http://www.w3.org/2000/svg" enable-background="new 0 0 512 512" viewBox="0 0 512 512"><path d="M182.085,105.02c13.945-10.132,32.248-16.233,41.944-19.011c0.217-0.055,0.436-0.109,0.654-0.217c15.471,9.859,24.948,22.552,30.722,34.427v0.49c4.249,1.253,8.443,2.669,12.638,4.304c2.941-1.144,5.882-2.179,8.879-3.105c3.759-14.163,10.023-27.018,19.664-35.897c11.875-10.949,23.151-11.275,28.271-13.781c10.078-4.903,14.272-17.05,9.369-27.127c-4.902-10.078-17.05-14.218-27.127-9.315l-0.763,0.381c-29.633,14.435-44.885,39.656-49.515,68.744c-6.374-9.588-15.198-19.066-27.346-26.855c0-0.326-0.055-0.654-0.164-1.035C212.644,3.919,120.367-10.462,85.941,6.315c-23.532,11.494-46.356,9.26-59.103,6.428c-5.393-1.199-10.132,3.54-8.988,8.934C30.16,79.745,120.367,149.905,182.085,105.02z"/><path d="M268.043,136.778h-0.055c-108.4-45.594-226.333,45.866-226.333,181.721c0,131.933,111.669,222.63,217.944,184.88c93.483-68.812,108.705-199.859,51.042-294.861c-1.58-2.56-0.763-5.882,1.852-7.463c2.56-1.525,5.883-0.709,7.463,1.853c58.671,96.576,44.776,227.145-42.979,300.689c105.786,37.096,217.346-52.948,217.346-185.098C494.322,183.025,376.661,91.075,268.043,136.778z"/></svg>